<mxfile host="app.diagrams.net" modified="2022-10-23T10:31:52.303Z" agent="5.0 (Windows NT 10.0; Win64; x64) AppleWebKit/537.36 (KHTML, like Gecko) Chrome/106.0.0.0 Safari/537.36" etag="pEfPirbZzeayag-fQiT5" version="20.5.0" type="github">
  <diagram id="C5RBs43oDa-KdzZeNtuy" name="Page-1">
    <mxGraphModel dx="823" dy="493" grid="1" gridSize="10" guides="1" tooltips="1" connect="1" arrows="1" fold="1" page="1" pageScale="1" pageWidth="827" pageHeight="1169" math="0" shadow="0">
      <root>
        <mxCell id="WIyWlLk6GJQsqaUBKTNV-0" />
        <mxCell id="WIyWlLk6GJQsqaUBKTNV-1" parent="WIyWlLk6GJQsqaUBKTNV-0" />
        <mxCell id="y0NJwMAcrgQC9P-ZFaWn-0" value="mamalia" style="swimlane;fontStyle=1;align=center;verticalAlign=top;childLayout=stackLayout;horizontal=1;startSize=26;horizontalStack=0;resizeParent=1;resizeParentMax=0;resizeLast=0;collapsible=1;marginBottom=0;fontSize=15;" vertex="1" parent="WIyWlLk6GJQsqaUBKTNV-1">
          <mxGeometry x="230" y="220" width="280" height="210" as="geometry">
            <mxRectangle x="320" y="231" width="90" height="30" as="alternateBounds" />
          </mxGeometry>
        </mxCell>
        <mxCell id="y0NJwMAcrgQC9P-ZFaWn-1" value="+ namamamalia : string&#xa;+ jumlahmamalia : int&#xa;+ diabanyak : bool" style="text;strokeColor=none;fillColor=none;align=left;verticalAlign=top;spacingLeft=4;spacingRight=4;overflow=hidden;rotatable=0;points=[[0,0.5],[1,0.5]];portConstraint=eastwest;fontSize=14;" vertex="1" parent="y0NJwMAcrgQC9P-ZFaWn-0">
          <mxGeometry y="26" width="280" height="54" as="geometry" />
        </mxCell>
        <mxCell id="y0NJwMAcrgQC9P-ZFaWn-2" value="" style="line;strokeWidth=1;fillColor=none;align=left;verticalAlign=middle;spacingTop=-1;spacingLeft=3;spacingRight=3;rotatable=0;labelPosition=right;points=[];portConstraint=eastwest;strokeColor=inherit;" vertex="1" parent="y0NJwMAcrgQC9P-ZFaWn-0">
          <mxGeometry y="80" width="280" height="8" as="geometry" />
        </mxCell>
        <mxCell id="y0NJwMAcrgQC9P-ZFaWn-3" value="+ set simpannama(string namaBaru) : void&#xa;+ set simpanjumlah(int jumlahBaru) : void&#xa;+ get dapatkannama : dynamic&#xa;+ get dapatkanjumlah : dynamic&#xa;+ get dapatkandiabanyak : dynamic&#xa;+ cekkondisimamalia() : void" style="text;strokeColor=none;fillColor=none;align=left;verticalAlign=top;spacingLeft=4;spacingRight=4;overflow=hidden;rotatable=0;points=[[0,0.5],[1,0.5]];portConstraint=eastwest;fontSize=14;" vertex="1" parent="y0NJwMAcrgQC9P-ZFaWn-0">
          <mxGeometry y="88" width="280" height="122" as="geometry" />
        </mxCell>
        <mxCell id="y0NJwMAcrgQC9P-ZFaWn-27" value="+ kudanil&lt;br&gt;+ zebra" style="html=1;align=center;fontSize=16;" vertex="1" parent="WIyWlLk6GJQsqaUBKTNV-1">
          <mxGeometry x="580" y="279" width="110" height="81" as="geometry" />
        </mxCell>
      </root>
    </mxGraphModel>
  </diagram>
</mxfile>
